<svg xmlns="http://www.w3.org/2000/svg" viewBox="0 0 220.9 200.82"><defs><style>.cls-1{fill:#83c27f;}.cls-2{fill:#323b4f;}</style></defs><title>logo</title><g id="Camada_2" data-name="Camada 2"><g id="Camada_1-2" data-name="Camada 1"><polygon class="cls-1" points="90.37 175.73 80.33 200.82 100.41 200.82 90.37 175.73"/><polygon class="cls-2" points="120.49 150.62 110.45 175.71 100.41 150.62 110.45 125.52 120.49 150.62"/><polygon class="cls-1" points="140.57 100.41 130.54 125.51 120.49 100.41 130.53 75.3 140.57 100.41"/><polygon class="cls-2" points="220.89 200.8 150.61 25.1 140.57 50.21 200.82 200.82 220.9 200.82 220.89 200.8"/><polygon class="cls-2" points="140.57 0 140.57 0.01 60.24 200.82 0 200.82 80.33 0.01 80.33 0 140.57 0"/><polygon class="cls-1" points="130.53 175.73 120.49 200.82 140.57 200.82 130.53 175.73"/><polygon class="cls-2" points="160.66 150.62 150.62 175.71 140.58 150.62 150.62 125.53 160.66 150.62"/><polygon class="cls-1" points="170.7 175.73 160.66 200.82 180.74 200.82 170.7 175.73"/></g></g></svg>